<svg width="491.813720703125px" height="122.021240234375px" xmlns="http://www.w3.org/2000/svg" viewBox="4.0931396484375 13.9893798828125 491.813720703125 122.021240234375" style="background: rgba(0, 0, 0, 0);" preserveAspectRatio="xMidYMid"><defs><filter id="editing-hole" x="-100%" y="-100%" width="300%" height="300%"><feFlood flood-color="#000" result="black"></feFlood><feMorphology operator="dilate" radius="2" in="SourceGraphic" result="erode"></feMorphology><feGaussianBlur in="erode" stdDeviation="4" result="blur"></feGaussianBlur><feOffset in="blur" dx="2" dy="2" result="offset"></feOffset><feComposite operator="atop" in="offset" in2="black" result="merge"></feComposite><feComposite operator="in" in="merge" in2="SourceGraphic" result="inner-shadow"></feComposite></filter></defs><g filter="url(#editing-hole)"><g transform="translate(77.51406553387642, 97.39218711853027)"><path d="M0.45-0.32L0.45-0.32L8.51-42.24L8.51-42.24Q16.06-42.88 20.93-42.88L20.93-42.88L20.93-42.88Q25.79-42.88 28.93-42.46L28.93-42.46L28.93-42.46Q32.06-42.05 34.18-40.96L34.18-40.96L34.18-40.96Q38.40-38.91 38.40-33.28L38.40-33.28L38.40-33.28Q38.40-30.02 35.58-27.26L35.58-27.26L35.58-27.26Q32.96-24.77 30.08-24.19L30.08-24.19L30.08-24.19Q33.15-23.68 35.33-21.38L35.33-21.38L35.33-21.38Q37.63-18.94 37.63-15.17L37.63-15.17L37.63-15.17Q37.63-7.87 32.19-3.62L32.19-3.62L32.19-3.62Q26.75 0.64 16.06 0.64L16.06 0.64L16.06 0.64Q8.70 0.64 0.45-0.32ZM17.86-20.61L14.66-4.03L14.66-4.03Q15.23-3.97 15.36-3.97L15.36-3.97L15.94-3.97L15.94-3.97Q21.18-3.97 23.42-7.42L23.42-7.42L23.42-7.42Q25.09-10.11 25.09-15.04L25.09-15.04L25.09-15.04Q25.09-17.66 23.39-19.07L23.39-19.07L23.39-19.07Q21.70-20.48 17.86-20.61L17.86-20.61ZM27.58-33.22L27.58-33.22L27.58-33.22Q27.58-38.53 22.46-38.53L22.46-38.53L21.89-38.53L21.89-38.53Q21.63-38.53 21.25-38.46L21.25-38.46L18.69-24.96L19.33-24.96L19.33-24.96Q27.58-25.15 27.58-33.22ZM69.63 1.28L69.63 1.28L69.63 1.28Q61.44 1.28 60.67-10.37L60.67-10.37L49.66-10.37L49.66-10.37Q48.38-7.42 47.49-4.86L47.49-4.86L45.82 0L36.86 0L57.02-42.24L70.78-42.24L73.47-11.14L73.47-11.14Q74.11-4.42 76.67-2.43L76.67-2.43L76.67-2.43Q74.82 1.28 69.63 1.28ZM55.17-23.17L51.65-15.04L60.48-15.04L59.71-31.49L59.71-33.22L55.17-23.17ZM113.09-13.25L113.09-13.25L113.09-13.25Q114.75-12.03 114.75-9.44L114.75-9.44L114.75-9.44Q114.75-6.85 113.63-5.02L113.63-5.02L113.63-5.02Q112.51-3.20 110.34-1.79L110.34-1.79L110.34-1.79Q105.66 1.22 97.50 1.22L97.50 1.22L97.50 1.22Q89.34 1.22 84.90-3.04L84.90-3.04L84.90-3.04Q80.45-7.30 80.45-14.85L80.45-14.85L80.45-14.85Q80.45-25.54 86.02-33.66L86.02-33.66L86.02-33.66Q90.24-39.68 97.79-42.24L97.79-42.24L97.79-42.24Q101.70-43.52 105.54-43.52L105.54-43.52L105.54-43.52Q109.38-43.52 111.74-43.01L111.74-43.01L111.74-43.01Q114.11-42.50 115.90-41.47L115.90-41.47L115.90-41.47Q119.81-39.23 119.81-35.65L119.81-35.65L119.81-35.65Q119.81-32.38 116.74-29.95L116.74-29.95L116.74-29.95Q113.92-27.78 111.62-27.78L111.62-27.78L111.62-27.78Q109.31-27.78 108.35-28.10L108.35-28.10L108.35-28.10Q108.61-30.40 108.61-31.90L108.61-31.90L108.61-31.90Q108.61-33.41 108.54-34.50L108.54-34.50L108.54-34.50Q108.48-35.58 108.16-36.61L108.16-36.61L108.16-36.61Q107.52-38.98 105.57-38.98L105.57-38.98L105.57-38.98Q103.62-38.98 101.66-37.15L101.66-37.15L101.66-37.15Q99.71-35.33 98.05-32.26L98.05-32.26L98.05-32.26Q94.27-25.28 94.27-17.02L94.27-17.02L94.27-17.02Q94.27-13.06 96.51-10.78L96.51-10.78L96.51-10.78Q98.75-8.51 103.55-8.51L103.55-8.51L103.55-8.51Q107.14-8.51 110.53-10.88L110.53-10.88L110.53-10.88Q112-11.90 113.09-13.25ZM133.12 0L119.49 0L126.78-38.91L127.49-42.24L141.18-42.24L133.12 0ZM159.10-3.78L159.10-3.78L159.10-3.78Q157.38 1.28 150.72 1.28L150.72 1.28L150.72 1.28Q145.79 1.28 142.40-4.61L142.40-4.61L142.40-4.61Q138.94-10.50 138.30-20.10L138.30-20.10L138.30-20.10Q145.34-32.96 150.21-38.27L150.21-38.27L150.21-38.27Q154.88-43.33 159.74-43.33L159.74-43.33L159.74-43.33Q162.37-43.33 164.26-41.92L164.26-41.92L164.26-41.92Q166.14-40.51 166.59-38.27L166.59-38.27L166.59-38.27Q164.42-37.38 163.39-36.67L163.39-36.67L163.39-36.67Q160.83-34.75 157.38-30.46L157.38-30.46L151.55-23.49L151.55-23.49Q150.14-21.82 149.57-21.06L149.57-21.06L149.57-21.06Q150.53-15.68 153.41-10.37L153.41-10.37L153.41-10.37Q156.16-5.31 159.10-3.78ZM191.30-9.86L191.30-9.86L191.30-9.86Q192.51-8.32 192.51-5.34L192.51-5.34L192.51-5.34Q192.51-2.37 190.24-0.54L190.24-0.54L190.24-0.54Q187.97 1.28 184.00 1.28L184.00 1.28L184.00 1.28Q181.70 1.28 178.11 0.77L178.11 0.77L178.11 0.77Q171.07-0.32 169.06-0.32L169.06-0.32L169.06-0.32Q167.04-0.32 166.21-0.22L166.21-0.22L166.21-0.22Q165.38-0.13 164.03 0L164.03 0L171.78-42.24L185.79-42.24L179.39-7.04L179.39-7.04Q180.22-6.91 180.99-6.91L180.99-6.91L182.59-6.91L182.59-6.91Q187.97-6.91 191.30-9.86ZM210.05 0L196.10 0L204.22-42.24L218.30-42.24L210.05 0ZM226.30 0L219.26 0L226.94-42.24L240.70-42.24L250.69-13.18L256-42.24L263.10-42.18L255.30 0L240.64 0L231.42-27.97L226.30 0ZM277.76 0L264.13 0L271.42-38.91L272.13-42.24L285.82-42.24L277.76 0ZM303.74-3.78L303.74-3.78L303.74-3.78Q302.02 1.28 295.36 1.28L295.36 1.28L295.36 1.28Q290.43 1.28 287.04-4.61L287.04-4.61L287.04-4.61Q283.58-10.50 282.94-20.10L282.94-20.10L282.94-20.10Q289.98-32.96 294.85-38.27L294.85-38.27L294.85-38.27Q299.52-43.33 304.38-43.33L304.38-43.33L304.38-43.33Q307.01-43.33 308.90-41.92L308.90-41.92L308.90-41.92Q310.78-40.51 311.23-38.27L311.23-38.27L311.23-38.27Q309.06-37.38 308.03-36.67L308.03-36.67L308.03-36.67Q305.47-34.75 302.02-30.46L302.02-30.46L296.19-23.49L296.19-23.49Q294.78-21.82 294.21-21.06L294.21-21.06L294.21-21.06Q295.17-15.68 298.05-10.37L298.05-10.37L298.05-10.37Q300.80-5.31 303.74-3.78ZM334.14-29.57L334.14-29.57L334.14-29.57Q335.10-31.49 335.10-33.28L335.10-33.28L335.10-33.28Q335.10-35.07 334.91-36.06L334.91-36.06L334.91-36.06Q334.72-37.06 334.27-37.82L334.27-37.82L334.27-37.82Q333.31-39.49 331.39-39.49L331.39-39.49L331.39-39.49Q329.02-39.49 327.10-37.76L327.10-37.76L327.10-37.76Q325.06-35.97 325.06-33.15L325.06-33.15L325.06-33.15Q325.06-31.36 326.30-29.98L326.30-29.98L326.30-29.98Q327.55-28.61 329.47-27.33L329.47-27.33L329.47-27.33Q331.39-26.05 333.57-24.77L333.57-24.77L333.57-24.77Q335.74-23.49 337.66-21.95L337.66-21.95L337.66-21.95Q342.08-18.43 342.08-13.70L342.08-13.70L342.08-13.70Q342.08-10.50 340.38-7.78L340.38-7.78L340.38-7.78Q338.69-5.06 335.87-3.07L335.87-3.07L335.87-3.07Q329.73 1.28 321.60 1.28L321.60 1.28L321.60 1.28Q315.01 1.28 311.62-0.86L311.62-0.86L311.62-0.86Q308.22-3.01 308.22-6.27L308.22-6.27L308.22-6.27Q308.22-12.10 312.77-13.57L312.77-13.57L312.77-13.57Q314.05-14.02 316.00-14.02L316.00-14.02L316.00-14.02Q317.95-14.02 320.19-13.18L320.19-13.18L320.19-13.18Q319.17-10.56 319.17-8.19L319.17-8.19L319.17-8.19Q319.17-3.07 322.82-3.07L322.82-3.07L322.82-3.07Q325.18-3.07 327.14-4.80L327.14-4.80L327.14-4.80Q329.09-6.53 329.09-8.48L329.09-8.48L329.09-8.48Q329.09-10.43 327.84-11.84L327.84-11.84L327.84-11.84Q326.59-13.25 324.74-14.37L324.74-14.37L324.74-14.37Q322.88-15.49 320.74-16.58L320.74-16.58L320.74-16.58Q318.59-17.66 316.74-19.20L316.74-19.20L316.74-19.20Q312.38-22.72 312.38-28.35L312.38-28.35L312.38-28.35Q312.38-32 314.18-34.85L314.18-34.85L314.18-34.85Q315.97-37.70 318.85-39.62L318.85-39.62L318.85-39.62Q324.61-43.52 331.68-43.52L331.68-43.52L331.68-43.52Q338.75-43.52 342.18-41.41L342.18-41.41L342.18-41.41Q345.60-39.30 345.60-35.71L345.60-35.71L345.60-35.71Q345.60-32.58 343.17-30.59L343.17-30.59L343.17-30.59Q341.06-28.93 338.50-28.93L338.50-28.93L338.50-28.93Q335.94-28.93 334.14-29.57Z" fill="#ccc"></path></g></g><style>text {
  font-size: 64px;
  font-family: Arial Black;
  dominant-baseline: central;
  text-anchor: middle;
}</style></svg>